<?xml version="1.0" encoding="utf-8"?>
<!-- Generator: Adobe Illustrator 15.1.0, SVG Export Plug-In . SVG Version: 6.00 Build 0)  -->
<!DOCTYPE svg PUBLIC "-//W3C//DTD SVG 1.1//EN" "http://www.w3.org/Graphics/SVG/1.1/DTD/svg11.dtd">
<svg version="1.1" id="Capa_1" xmlns="http://www.w3.org/2000/svg" xmlns:xlink="http://www.w3.org/1999/xlink" x="0px" y="0px"
	 width="595.275px" height="595.281px" viewBox="123.308 0 595.275 595.281" enable-background="new 123.308 0 595.275 595.281"
	 xml:space="preserve">
<path d="M699.566,542.207L557.888,394.855c36.428-43.305,56.387-97.79,56.387-154.511C614.275,107.82,506.455,0,373.932,0
	C241.408,0,133.587,107.82,133.587,240.344c0,132.524,107.82,240.345,240.344,240.345c49.751,0,97.162-15.006,137.697-43.492
	l142.754,148.471c5.967,6.195,13.992,9.613,22.592,9.613c8.141,0,15.863-3.104,21.725-8.746
	C711.156,574.548,711.552,554.673,699.566,542.207z M373.932,62.698c97.957,0,177.646,79.69,177.646,177.646
	S471.888,417.99,373.932,417.99c-97.956,0-177.646-79.689-177.646-177.646S275.976,62.698,373.932,62.698z"/>
</svg>
